<?xml version="1.0" encoding="UTF-8" standalone="no"?>
<svg
   width="209.26353pt"
   height="222.29041pt"
   viewBox="0 0 209.26353 222.29041"
   version="1.1"
   id="svg56"
   sodipodi:docname="network.svg"
   inkscape:version="1.3 (1:1.3+202307231459+0e150ed6c4)"
   xmlns:inkscape="http://www.inkscape.org/namespaces/inkscape"
   xmlns:sodipodi="http://sodipodi.sourceforge.net/DTD/sodipodi-0.dtd"
   xmlns="http://www.w3.org/2000/svg"
   xmlns:svg="http://www.w3.org/2000/svg">
  <sodipodi:namedview
     id="namedview1"
     pagecolor="#ffffff"
     bordercolor="#000000"
     borderopacity="0.25"
     inkscape:showpageshadow="2"
     inkscape:pageopacity="0.0"
     inkscape:pagecheckerboard="0"
     inkscape:deskcolor="#d1d1d1"
     inkscape:document-units="pt"
     inkscape:zoom="1"
     inkscape:cx="141.5"
     inkscape:cy="171"
     inkscape:window-width="1368"
     inkscape:window-height="699"
     inkscape:window-x="0"
     inkscape:window-y="0"
     inkscape:window-maximized="1"
     inkscape:current-layer="svg56" />
  <defs
     id="defs60" />
  <path
     fill-rule="nonzero"
     fill="#000000"
     fill-opacity="1"
     stroke-width="0.118304"
     stroke-linecap="butt"
     stroke-linejoin="miter"
     stroke="#000000"
     stroke-opacity="0.3386"
     stroke-miterlimit="4"
     d="m 111.76695,204.72655 c -0.48047,0 -0.76563,-0.008 -0.85547,-0.0273 -0.0898,-0.0195 -0.13281,-0.12109 -0.13281,-0.30078 0,-0.4961 0.0977,-0.79688 0.29296,-0.91016 0.0156,-0.0156 1.17578,-0.0273 3.47265,-0.0273 4.60938,0 7.03906,0.0195 7.28906,0.0547 1.12109,0.1836 2.05859,0.59766 2.80468,1.23829 0.75,0.64062 1.13281,1.48437 1.14844,2.52734 0,1.17188 -0.51563,2.22657 -1.54687,3.16016 -1.03516,0.93359 -2.21875,1.56641 -3.55469,1.89844 l -0.26562,0.082 c 1.14062,0.16406 2.07422,0.58594 2.80468,1.26172 0.73047,0.67969 1.10156,1.52344 1.12109,2.52735 0,1.33984 -0.64062,2.6289 -1.92187,3.875 -1.28124,1.24609 -2.85937,1.95312 -4.72655,2.11719 -0.125,0.0195 -2.00391,0.0273 -5.63672,0.0273 -3.56249,0 -5.36718,-0.0195 -5.42186,-0.0547 -0.0703,-0.0547 -0.10547,-0.1289 -0.10547,-0.21875 0,-0.1289 0.0156,-0.25781 0.0508,-0.38672 0.0898,-0.34765 0.17969,-0.53906 0.26953,-0.57812 0.0703,-0.0156 0.20312,-0.0273 0.39844,-0.0273 h 0.16015 c 0.48047,0 1.01563,-0.0273 1.60156,-0.082 0.25,-0.0547 0.42188,-0.16406 0.50781,-0.32812 0.0547,-0.0742 0.69532,-2.6211 1.92578,-7.64063 1.22656,-5.01954 1.83984,-7.66407 1.83984,-7.94141 0,-0.12891 -0.50781,-0.21094 -1.51953,-0.2461 z m 11.16404,2.55469 c 0,-0.54687 -0.13671,-1.0625 -0.40234,-1.53906 -0.26562,-0.47656 -0.70312,-0.78516 -1.30859,-0.9336 -0.125,-0.0352 -0.94531,-0.0625 -2.45703,-0.082 -0.35547,0 -0.73047,0 -1.12109,0 -0.39062,0 -0.70312,0.008 -0.93359,0.0273 h -0.34766 c -0.26953,0.0195 -0.4375,0.10937 -0.50781,0.27343 -0.0352,0.0742 -0.32032,1.17579 -0.85547,3.30079 0,0.0547 -0.008,0.10937 -0.0273,0.16406 l -0.82812,3.46094 h 2.16405 c 1.44141,0 2.26953,-0.0195 2.48438,-0.0547 1.0664,-0.18359 2.01952,-0.71484 2.85546,-1.59375 0.83984,-0.87891 1.26562,-1.88672 1.28515,-3.02344 z m -1.44531,8.65626 c 0,-0.80469 -0.20312,-1.47266 -0.61328,-2.00391 -0.41015,-0.53125 -0.9414,-0.84375 -1.60156,-0.9375 -0.10546,-0.0156 -0.84765,-0.0273 -2.21874,-0.0273 -2.09766,0 -3.16016,0.0117 -3.17578,0.0273 0,0.0391 -0.15235,0.70703 -0.45313,2.00781 -0.30468,1.30079 -0.61718,2.59376 -0.9375,3.87501 l -0.48046,1.92187 c 0,0.0742 0.10937,0.10938 0.32031,0.10938 0.21484,0 0.9375,0.0195 2.16406,0.0547 1.58593,0 2.4414,-0.008 2.5625,-0.0273 1.10546,-0.125 2.12109,-0.65625 3.04687,-1.59375 0.92578,-0.93359 1.38671,-2.07031 1.38671,-3.40625 z m 0,0"
     id="path2" />
  <path
     fill="none"
     stroke-width="1.50156"
     stroke-linecap="butt"
     stroke-linejoin="miter"
     stroke="#000000"
     stroke-opacity="1"
     stroke-miterlimit="10"
     d="m 115.35684,30.03126 83.31254,157.82818"
     id="path4"
     style="stroke-width:3;stroke-dasharray:none" />
  <path
     fill-rule="nonzero"
     fill="#000000"
     fill-opacity="1"
     stroke-width="1.50156"
     stroke-linecap="butt"
     stroke-linejoin="miter"
     stroke="#000000"
     stroke-opacity="1"
     stroke-miterlimit="10"
     d="m 200.77094,191.83991 -5.45703,-3.90235 3.35547,-0.0781 1.96094,-2.73047 z m 0,0"
     id="path6" />
  <path
     fill="none"
     stroke-width="1.50156"
     stroke-linecap="butt"
     stroke-linejoin="miter"
     stroke="#000000"
     stroke-opacity="1"
     stroke-miterlimit="10"
     d="M 115.35684,30.03126 30.692752,187.87506"
     id="path8"
     style="stroke-width:3;stroke-dasharray:none" />
  <path
     fill-rule="nonzero"
     fill="#000000"
     fill-opacity="1"
     stroke-width="1.50156"
     stroke-linecap="butt"
     stroke-linejoin="miter"
     stroke="#000000"
     stroke-opacity="1"
     stroke-miterlimit="10"
     d="m 28.559939,191.84772 0.195313,-6.71094 1.9375,2.73828 3.35547,0.0977 z m 0,0"
     id="path10" />
  <path
     fill="none"
     stroke-width="1.50156"
     stroke-linecap="butt"
     stroke-linejoin="miter"
     stroke="#000000"
     stroke-opacity="1"
     stroke-miterlimit="10"
     d="m 70.30995,112.61722 41.37502,75.28909"
     id="path12"
     style="stroke-width:3;stroke-dasharray:none" />
  <path
     fill-rule="nonzero"
     fill="#000000"
     fill-opacity="1"
     stroke-width="1.50156"
     stroke-linecap="butt"
     stroke-linejoin="miter"
     stroke="#000000"
     stroke-opacity="1"
     stroke-miterlimit="10"
     d="m 113.85293,191.85553 -5.52343,-3.81641 3.35547,-0.13281 1.90625,-2.76172 z m 0,0"
     id="path14" />
  <path
     fill-rule="nonzero"
     fill="#000000"
     fill-opacity="1"
     stroke-width="0.119466"
     stroke-linecap="butt"
     stroke-linejoin="miter"
     stroke="#000000"
     stroke-opacity="0.3393"
     stroke-miterlimit="4"
     d="m 21.126335,220.21484 c 0,0.4336 0.414063,0.69141 1.242188,0.76172 0.324219,0 0.488281,0.10156 0.488281,0.30078 0,0.0195 -0.01953,0.13672 -0.05469,0.35547 -0.05469,0.25391 -0.109375,0.41797 -0.164062,0.48828 -0.05469,0.0742 -0.171875,0.10938 -0.351563,0.10938 -0.03516,0 -0.144531,0 -0.324219,0 -0.179687,0 -0.484375,-0.008 -0.917969,-0.0273 -0.433594,-0.0156 -1.007813,-0.0273 -1.730469,-0.0273 -1.277344,0 -2.097657,0.0195 -2.457032,0.0547 h -0.214844 c -0.128906,-0.125 -0.191406,-0.22656 -0.191406,-0.30078 0.03516,-0.48828 0.152344,-0.8086 0.351562,-0.95313 h 0.378907 c 1.261719,-0.0547 2.179688,-0.50781 2.757813,-1.36328 0.105469,-0.10937 1.738282,-2.8789 4.890626,-8.31249 3.152345,-5.4375 4.753908,-8.19141 4.808596,-8.26172 0.125,-0.21875 0.339844,-0.32812 0.648438,-0.32812 h 0.675781 c 0.105469,0.16406 0.160156,0.2539 0.160156,0.27343 l 0.757813,8.80469 c 0.503906,5.87109 0.773438,8.83202 0.808594,8.88671 0.09375,0.20313 0.675781,0.30078 1.757813,0.30078 0.449219,0 0.675781,0.0898 0.675781,0.27344 0,0.0352 -0.02734,0.16406 -0.08203,0.38281 -0.05469,0.26953 -0.09766,0.4336 -0.132812,0.48828 -0.03906,0.0547 -0.164063,0.0937 -0.378907,0.10938 -0.05469,0 -0.179687,0 -0.378906,0 -0.199219,0 -0.550782,-0.008 -1.054688,-0.0273 -0.503906,-0.0156 -1.160157,-0.0273 -1.972657,-0.0273 -1.691407,0 -2.800782,0.0195 -3.324219,0.0547 h -0.324219 c -0.105469,-0.10938 -0.160157,-0.19141 -0.160157,-0.2461 0,-0.0547 0.01953,-0.21484 0.05469,-0.48828 0.07031,-0.23828 0.125,-0.38281 0.160156,-0.4375 l 0.109375,-0.082 h 0.539063 c 0.972656,-0.0547 1.550782,-0.20703 1.730469,-0.46094 l -0.324219,-4.08984 h -6.429693 l -0.921875,1.57813 c -0.738281,1.2539 -1.105469,1.99218 -1.105469,2.21093 z m 8.320316,-5.07031 c 0,-0.20312 -0.105469,-1.62109 -0.324219,-4.2539 -0.214844,-2.63672 -0.339844,-3.96484 -0.375,-3.98047 l -0.730469,1.17188 C 27.7279,208.57422 27.161494,209.54688 26.313837,211 l -2.433595,4.14453 2.785158,0.0273 c 1.855469,0 2.781251,-0.0117 2.781251,-0.0273 z m 0,0"
     id="path16" />
  <path
     fill-rule="nonzero"
     fill="#000000"
     fill-opacity="1"
     stroke-width="0.118051"
     stroke-linecap="butt"
     stroke-linejoin="miter"
     stroke="#000000"
     stroke-opacity="0.328"
     stroke-miterlimit="4"
     d="m 190.26696,215.15625 c 0,-1.97657 0.59375,-3.87891 1.78516,-5.70313 1.1914,-1.82422 2.69531,-3.26954 4.50781,-4.33594 1.81641,-1.07032 3.62891,-1.60938 5.44141,-1.62891 1.60156,0 2.87109,0.4414 3.8164,1.3164 0.16016,0.17188 0.29297,0.32032 0.39844,0.44141 0.10547,0.11719 0.17969,0.20313 0.21484,0.25781 l 0.0274,0.0781 c 0.0508,0 0.29296,-0.22656 0.71875,-0.67188 0.125,-0.10547 0.25781,-0.22656 0.39843,-0.36328 0.14453,-0.13672 0.28516,-0.27344 0.42969,-0.41406 0.14063,-0.13672 0.23047,-0.23047 0.26563,-0.28125 l 0.39843,-0.38672 h 0.16016 c 0.25,0 0.375,0.0586 0.375,0.17969 0,0.0703 -0.28516,1.24609 -0.85547,3.53516 -0.64062,2.39453 -0.95703,3.59766 -0.95703,3.61328 -0.0391,0.0859 -0.082,0.14063 -0.13672,0.15625 -0.0508,0.0156 -0.21094,0.0352 -0.48047,0.0508 h -0.42578 c -0.10547,-0.10156 -0.16016,-0.17968 -0.16016,-0.23047 0,-0.0195 0.0117,-0.0781 0.0273,-0.17968 0.0195,-0.10547 0.0352,-0.27735 0.0547,-0.51954 0.0156,-0.23828 0.0273,-0.51562 0.0273,-0.82421 0,-1.22266 -0.28516,-2.28907 -0.85547,-3.20313 -0.57031,-0.91016 -1.53906,-1.375 -2.90625,-1.39063 -0.46484,0 -0.96094,0.0586 -1.49609,0.17969 -0.53125,0.12109 -1.17188,0.32812 -1.91797,0.61719 -0.74609,0.29297 -1.48437,0.77734 -2.21484,1.44922 -0.73047,0.66797 -1.37891,1.46875 -1.94532,2.39844 -0.57031,0.98047 -1.02343,2.125 -1.36328,3.43359 -0.33593,1.3086 -0.5039,2.37501 -0.5039,3.19923 0,1.96484 0.67578,3.375 2.02734,4.23438 0.85156,0.58593 1.90234,0.8789 3.14453,0.8789 1.62109,0 3.05859,-0.58594 4.32031,-1.75781 1.26563,-1.16797 2.10157,-2.44141 2.50782,-3.82032 0.0703,-0.22265 0.125,-0.35156 0.16015,-0.38672 0.0352,-0.0312 0.17969,-0.0508 0.42969,-0.0508 0.35547,0 0.53125,0.0781 0.53125,0.23438 0,0.0859 -0.008,0.16015 -0.0273,0.23047 -0.51562,1.83984 -1.61718,3.42578 -3.30468,4.75 -1.69141,1.32422 -3.50391,1.98828 -5.44141,1.98828 -2.01172,0 -3.71093,-0.64453 -5.09765,-1.9375 -1.38672,-1.28906 -2.07813,-3.00391 -2.07813,-5.13672 z m 0,0"
     id="path18" />
  <path
     fill="none"
     stroke-width="1.50156"
     stroke-linecap="butt"
     stroke-linejoin="miter"
     stroke="#000000"
     stroke-opacity="1"
     stroke-miterlimit="10"
     d="M 115.35684,30.03126 V 0"
     id="path20"
     style="stroke-width:3;stroke-dasharray:none" />
  <path
     fill="none"
     stroke-width="1.50156"
     stroke-linecap="butt"
     stroke-linejoin="miter"
     stroke="#b20000"
     stroke-opacity="1"
     stroke-miterlimit="10"
     d="M 99.19132,165.17193 H 49.296962"
     id="path22"
     sodipodi:nodetypes="cc"
     style="stroke-width:3;stroke-dasharray:none" />
  <path
     fill-rule="nonzero"
     fill="#b20000"
     fill-opacity="1"
     stroke-width="1.50156"
     stroke-linecap="butt"
     stroke-linejoin="miter"
     stroke="#b20000"
     stroke-opacity="1"
     stroke-miterlimit="10"
     d="m 44.789147,165.17193 6.007815,-3.00391 -1.500001,3.00391 1.500001,3.00391 z"
     id="path24"
     sodipodi:nodetypes="ccccc" />
  <path
     fill-rule="nonzero"
     fill="#cc0000"
     fill-opacity="1"
     stroke-width="6.72825"
     stroke-linecap="butt"
     stroke-linejoin="miter"
     stroke="#cc0000"
     stroke-opacity="0.2227"
     stroke-miterlimit="4"
     d="m 65.343369,152.85729 c 0,0.40234 0.08203,0.76562 0.250001,1.08593 0.164063,0.32031 0.378907,0.5664 0.640626,0.73047 0.26172,0.16797 0.515627,0.30468 0.765627,0.41015 0.250001,0.10938 0.457033,0.1875 0.621096,0.23438 l 0.269532,0.0351 0.03516,-0.0195 0.230469,-0.73047 c 0.214845,-0.68749 0.410158,-1.27734 0.589846,-1.76562 0.175781,-0.48828 0.406251,-1.01171 0.691408,-1.57031 0.285157,-0.55859 0.570314,-1.00781 0.855471,-1.35546 0.285157,-0.34375 0.63672,-0.62891 1.050784,-0.85547 0.414063,-0.22656 0.847658,-0.33984 1.300784,-0.33984 0.531251,0 1.007815,0.19141 1.421879,0.57422 0.41797,0.3789 0.628908,1.01953 0.640626,1.92577 0,0.92578 -0.253906,1.81641 -0.765627,2.67187 -0.507813,0.85938 -1.21094,1.55469 -2.097661,2.08984 -0.890627,0.53516 -1.82813,0.80078 -2.816414,0.80078 -0.308594,0 -0.460938,0.0117 -0.460938,0.0352 l -0.125001,0.64453 c -0.07031,0.41406 -0.152344,0.87109 -0.25,1.37109 -0.09375,0.5 -0.160157,0.82031 -0.195313,0.96484 -0.05859,0.28515 -0.214845,0.48047 -0.460939,0.58594 -0.132813,0.0742 -0.281251,0.10937 -0.445314,0.10937 -0.371094,-0.0352 -0.554689,-0.23437 -0.554689,-0.58984 0,-0.11719 0.328126,-1.20703 0.980472,-3.26171 l -0.08984,-0.0391 c -0.05859,-0.0234 -0.140626,-0.0508 -0.250001,-0.0859 -0.105469,-0.0352 -0.234376,-0.0898 -0.390626,-0.16016 -0.152344,-0.0742 -0.308594,-0.15625 -0.460939,-0.25 -0.15625,-0.0976 -0.316407,-0.20312 -0.48047,-0.32422 -0.167969,-0.11718 -0.320313,-0.26562 -0.464845,-0.44531 -0.140625,-0.17578 -0.277344,-0.36718 -0.410157,-0.57031 -0.128906,-0.20312 -0.21875,-0.43359 -0.265626,-0.69531 -0.04687,-0.26172 -0.08203,-0.54687 -0.105469,-0.85547 0,-0.57031 0.152345,-1.28906 0.460939,-2.15624 0.308595,-0.87109 0.74219,-1.58203 1.300785,-2.14062 h 0.230469 c 0.250001,0 0.375001,0.0469 0.375001,0.14062 0,0.0703 -0.04687,0.15625 -0.144532,0.25 -0.484376,0.57031 -0.847658,1.21875 -1.08594,1.94531 -0.234375,0.72265 -0.367188,1.25781 -0.390626,1.60547 z m 8.582053,-1.21485 c 0,-0.49999 -0.144531,-0.89062 -0.429688,-1.17577 -0.285157,-0.28516 -0.664064,-0.4336 -1.136722,-0.44532 -0.582033,0 -1.128909,0.23828 -1.640628,0.71094 -0.507815,0.47656 -0.92969,1.13672 -1.261722,1.98046 -0.167969,0.40625 -0.332032,1.05469 -0.500001,1.94531 l -0.160157,0.80078 c 0.214844,0.0234 0.332032,0.0352 0.35547,0.0352 1.390628,0 2.531256,-0.41016 3.417977,-1.23047 0.890627,-0.82031 1.343754,-1.6914 1.355472,-2.62109 z m 0,0"
     id="path28"
     style="stroke:none" />
  <text
     xml:space="preserve"
     style="font-size:15px;line-height:1.1;font-family:'Latin Modern Sans';-inkscape-font-specification:'Latin Modern Sans';text-align:center;letter-spacing:0px;text-anchor:middle;fill:#0013a1;fill-opacity:1;stroke-width:2.83465"
     x="73.377289"
     y="36.783916"
     id="text1"><tspan
       sodipodi:role="line"
       id="tspan1"
       style="font-size:15px;fill:#0013a1;fill-opacity:1;stroke-width:2.83465"
       x="73.377289"
       y="36.783916">speciation</tspan></text>
  <text
     xml:space="preserve"
     style="font-size:15px;line-height:1.1;font-family:'Latin Modern Sans';-inkscape-font-specification:'Latin Modern Sans';text-align:center;letter-spacing:0px;text-anchor:middle;fill:#0013a1;fill-opacity:1;stroke-width:2.83465"
     x="30.727385"
     y="119.36316"
     id="text1-6"><tspan
       sodipodi:role="line"
       id="tspan1-7"
       style="font-size:15px;fill:#0013a1;fill-opacity:1;stroke-width:2.83465"
       x="30.727385"
       y="119.36316">speciation</tspan></text>
  <text
     xml:space="preserve"
     style="font-size:15px;line-height:1.1;font-family:'Latin Modern Sans';-inkscape-font-specification:'Latin Modern Sans';text-align:center;letter-spacing:0px;text-anchor:middle;fill:#0013a1;fill-opacity:1;stroke-width:2.83465"
     x="17.149611"
     y="160.83676"
     id="text1-6-3"><tspan
       sodipodi:role="line"
       style="font-size:15px;fill:#0013a1;fill-opacity:1;stroke-width:2.83465"
       x="17.149611"
       y="160.83676"
       id="tspan2">gene</tspan><tspan
       sodipodi:role="line"
       style="font-size:15px;fill:#0013a1;fill-opacity:1;stroke-width:2.83465"
       x="17.149611"
       y="177.33676"
       id="tspan3">flow</tspan></text>
</svg>
